<svg width="30" height="31" viewBox="0 0 30 31" fill="none" xmlns="http://www.w3.org/2000/svg">
<path d="M26.7857 0H3.21429C2.3618 0 1.54424 0.343727 0.941442 0.955564C0.338647 1.5674 0 2.39723 0 3.2625L0 27.1875C0 28.0528 0.338647 28.8826 0.941442 29.4944C1.54424 30.1063 2.3618 30.45 3.21429 30.45H12.4051V20.0977H8.18638V15.225H12.4051V11.5112C12.4051 7.28693 14.8828 4.95356 18.6777 4.95356C20.4951 4.95356 22.3955 5.28253 22.3955 5.28253V9.42862H20.3016C18.2384 9.42862 17.5949 10.7282 17.5949 12.0611V15.225H22.2007L21.4641 20.0977H17.5949V30.45H26.7857C27.6382 30.45 28.4558 30.1063 29.0586 29.4944C29.6614 28.8826 30 28.0528 30 27.1875V3.2625C30 2.39723 29.6614 1.5674 29.0586 0.955564C28.4558 0.343727 27.6382 0 26.7857 0Z" fill="#F1F1F1"/>
</svg>
