<svg width="30" height="31" viewBox="0 0 30 31" fill="none" xmlns="http://www.w3.org/2000/svg">
<path d="M15 11.5995C14.2936 11.5998 13.6032 11.8127 13.0159 12.2112C12.4287 12.6097 11.9711 13.1761 11.701 13.8385C11.4308 14.501 11.3603 15.2299 11.4983 15.9331C11.6362 16.6363 11.9765 17.2822 12.4761 17.7891C12.9757 18.296 13.6122 18.6411 14.305 18.7809C14.9978 18.9207 15.7159 18.8488 16.3685 18.5744C17.0211 18.2999 17.5789 17.8352 17.9713 17.2391C18.3638 16.6429 18.5732 15.942 18.5732 15.225C18.5725 14.2635 18.1958 13.3415 17.5258 12.6617C16.8558 11.9819 15.9473 11.5999 15 11.5995ZM23.3511 8.81283C23.1693 8.3451 22.8947 7.92028 22.5444 7.56472C22.1941 7.20917 21.7756 6.93046 21.3147 6.7459C19.9085 6.18244 16.5603 6.30886 15 6.30886C13.4397 6.30886 10.0949 6.17768 8.6846 6.7459C8.22378 6.93046 7.80524 7.20917 7.45494 7.56472C7.10464 7.92028 6.83005 8.3451 6.64821 8.81283C6.09375 10.2402 6.21763 13.642 6.21763 15.2243C6.21763 16.8066 6.09375 20.2044 6.65089 21.6365C6.83273 22.1042 7.10732 22.529 7.45761 22.8846C7.80791 23.2402 8.22646 23.5189 8.68728 23.7034C10.0935 24.2669 13.4417 24.1405 15.0027 24.1405C16.5636 24.1405 19.9071 24.2716 21.3174 23.7034C21.7782 23.5189 22.1968 23.2402 22.5471 22.8846C22.8974 22.529 23.172 22.1042 23.3538 21.6365C23.9129 20.2091 23.7844 16.8073 23.7844 15.225C23.7844 13.6427 23.9129 10.2456 23.3538 8.81351L23.3511 8.81283ZM15 20.7984C13.914 20.7984 12.8523 20.4716 11.9493 19.8591C11.0463 19.2467 10.3425 18.3763 9.92691 17.3579C9.5113 16.3394 9.40256 15.2188 9.61444 14.1377C9.82631 13.0565 10.3493 12.0634 11.1172 11.284C11.8852 10.5045 12.8636 9.97371 13.9287 9.75865C14.9939 9.5436 16.098 9.65397 17.1013 10.0758C18.1047 10.4977 18.9623 11.212 19.5657 12.1286C20.169 13.0451 20.4911 14.1227 20.4911 15.225C20.492 15.9572 20.3505 16.6823 20.0749 17.3589C19.7992 18.0355 19.3948 18.6503 18.8847 19.168C18.3747 19.6857 17.769 20.0962 17.1024 20.376C16.4358 20.6558 15.7213 20.7993 15 20.7984ZM20.7174 10.7187C20.4639 10.7188 20.216 10.6426 20.0052 10.4998C19.7943 10.3569 19.6299 10.1538 19.5328 9.91606C19.4357 9.67836 19.4102 9.41677 19.4596 9.16437C19.509 8.91197 19.631 8.6801 19.8102 8.4981C19.9894 8.31609 20.2178 8.19213 20.4664 8.14187C20.7151 8.09162 20.9728 8.11735 21.2071 8.21579C21.4413 8.31423 21.6415 8.48098 21.7824 8.69493C21.9233 8.90888 21.9984 9.16042 21.9984 9.41775C21.9991 9.58863 21.9666 9.75797 21.9027 9.91606C21.8388 10.0742 21.7447 10.2179 21.626 10.339C21.5072 10.4601 21.366 10.5562 21.2106 10.6219C21.0551 10.6875 20.8884 10.7213 20.7201 10.7214L20.7174 10.7187ZM26.7857 0H3.21429C2.3618 0 1.54424 0.343727 0.941442 0.955564C0.338647 1.5674 0 2.39723 0 3.2625L0 27.1875C0 28.0528 0.338647 28.8826 0.941442 29.4944C1.54424 30.1063 2.3618 30.45 3.21429 30.45H26.7857C27.6382 30.45 28.4558 30.1063 29.0586 29.4944C29.6614 28.8826 30 28.0528 30 27.1875V3.2625C30 2.39723 29.6614 1.5674 29.0586 0.955564C28.4558 0.343727 27.6382 0 26.7857 0ZM25.6393 19.7109C25.5529 21.453 25.1612 22.9965 23.9083 24.2648C22.6554 25.5331 21.1359 25.9389 19.4217 26.0218C17.6531 26.1231 12.3509 26.1231 10.5824 26.0218C8.86607 25.9342 7.35067 25.5359 6.09576 24.2648C4.84085 22.9938 4.44643 21.4496 4.36473 19.7109C4.26496 17.9152 4.26496 12.5328 4.36473 10.7391C4.45112 8.99702 4.83817 7.45345 6.09576 6.18516C7.35335 4.91686 8.87277 4.51584 10.5824 4.43292C12.3509 4.33165 17.6531 4.33165 19.4217 4.43292C21.1379 4.5206 22.658 4.9189 23.9083 6.18991C25.1585 7.46093 25.5576 9.00518 25.6393 10.7472C25.7391 12.5362 25.7391 17.9138 25.6393 19.7109Z" fill="#F1F1F1"/>
</svg>
