<svg width="30" height="31" viewBox="0 0 30 31" fill="none" xmlns="http://www.w3.org/2000/svg">
<path d="M26.7857 0H3.21429C1.43973 0 0 1.46133 0 3.2625V27.1875C0 28.9887 1.43973 30.45 3.21429 30.45H26.7857C28.5603 30.45 30 28.9887 30 27.1875V3.2625C30 1.46133 28.5603 0 26.7857 0ZM23.5112 10.7934C23.5246 10.9837 23.5246 11.1809 23.5246 11.3712C23.5246 17.2641 19.1049 24.0541 11.029 24.0541C8.53795 24.0541 6.22768 23.3201 4.28571 22.0559C4.64062 22.0966 4.98214 22.1102 5.34375 22.1102C7.39955 22.1102 9.28795 21.4034 10.7946 20.2071C8.86607 20.1663 7.24554 18.8817 6.68973 17.1145C7.36607 17.2165 7.97545 17.2165 8.67188 17.033C6.66295 16.6184 5.15625 14.824 5.15625 12.6558V12.6014C5.73884 12.9345 6.42187 13.1384 7.13839 13.1655C6.536 12.7588 6.04218 12.2071 5.70098 11.5595C5.35979 10.912 5.18185 10.1888 5.18304 9.45445C5.18304 8.62523 5.39732 7.86398 5.77902 7.20469C7.94196 9.90984 11.1897 11.677 14.8326 11.8673C14.2098 8.84273 16.4397 6.38906 19.1183 6.38906C20.3839 6.38906 21.5223 6.92601 22.3259 7.79601C23.317 7.6057 24.2679 7.23187 25.1116 6.72211C24.7835 7.75523 24.0938 8.62523 23.183 9.17578C24.067 9.08062 24.9241 8.82914 25.7143 8.4825C25.1183 9.37289 24.3683 10.1613 23.5112 10.7934Z" fill="#F1F1F1"/>
</svg>
